<?xml version="1.0" encoding="utf-8"?>
<!-- Generator: Adobe Illustrator 24.1.2, SVG Export Plug-In . SVG Version: 6.00 Build 0)  -->
<svg version="1.1" xmlns="http://www.w3.org/2000/svg" xmlns:xlink="http://www.w3.org/1999/xlink" x="0px" y="0px"
	 viewBox="0 0 500 250" style="enable-background:new 0 0 500 250;" xml:space="preserve">
<style type="text/css">
	.st0{fill:none;}
	.st1{opacity:0.75;fill:#023D6B;}
	.st2{opacity:0.5;fill:#023D6B;}
	.st3{opacity:0.25;fill:#023D6B;}
	.st4{fill:#1D1D1B;}
	.st5{fill:#FFFFFF;}
	.st6{fill:#023D6B;}
	.st7{fill:#ADBDE3;}
	.st8{fill:#025DFF;}
	.st9{opacity:0.2;fill:#FFFFFF;}
</style>
<g id="Ebene_4">

		<ellipse transform="matrix(0.4017 -0.9158 0.9158 0.4017 -47.2752 177.6425)" class="st0" cx="112.31" cy="125" rx="115.76" ry="118.06"/>
	<circle class="st1" cx="175.82" cy="28.11" r="9.7"/>
	<circle class="st2" cx="202.21" cy="53.69" r="7.44"/>
	<circle class="st3" cx="218.5" cy="82.39" r="4.2"/>
	<circle class="st1" cx="57.39" cy="226.86" r="9.7"/>
	<circle class="st2" cx="28.46" cy="202.71" r="7.44"/>
	<circle class="st3" cx="9.2" cy="173.38" r="4.2"/>
</g>
<g id="Ebene_1">
</g>
<g id="Ebene_3">
	<g>
		<circle class="st6" cx="113.16" cy="125.52" r="98.33"/>
		<g>
			<g>
				<g>
					<g>
						<g>
							<g>
								<path class="st7" d="M211.27,117.64C95.59,120.36,30.21,77.36,28.19,75.99c2.7-4.55,5.7-9,9.08-13.05
									c-0.06,0.09-0.12,0.16-0.19,0.25c37.94,18.12,128.67,15.57,166.63,23.63C207.91,96.58,210.43,107.05,211.27,117.64z"/>
							</g>
						</g>
					</g>
				</g>
			</g>
			<g>
				<g>
					<g>
						<g>
							<g>
								<path class="st8" d="M203.73,86.83C165.71,78.76,75.06,81.31,37.07,63.2c5.98-7.37,13.06-13.81,20.85-19.17
									c0,0,2.74-1.68,4.04-2.47c30.59-18.61,76.55,26.5,135.53,33.35C199.81,78.73,202,82.75,203.73,86.83z"/>
							</g>
						</g>
					</g>
				</g>
			</g>
		</g>
		<path class="st7" d="M195.12,179.88c-8.69,13.15-20.63,24.09-34.42,31.74C69.4,204.73,27,171.48,25.63,170.37
			c-2-3.92-3.81-8.01-5.24-12.19C99.67,190.96,162.87,185.72,195.12,179.88z"/>
		<path class="st8" d="M211.49,125.37c0,10.82-1.7,21.67-5.24,31.9c-1.45,4.35-3.26,8.6-5.34,12.71
			c-28.04-0.37-36.97,9.13-80.82-1.78c-40.47-13.82-82.45-12.35-104.95-34.81c-0.62-7.98-0.31-16.26,1.03-24.04
			C27.01,114.6,98.86,146.16,211.49,125.37z"/>
		<path class="st9" d="M113.16,27.2c-0.21,0-0.41-0.01-0.61-0.01c-54.3,0.33-98.06,44.63-97.72,98.94
			c0.33,54.1,44.31,97.72,98.33,97.72V27.2z"/>
	</g>
	<g>
		<path class="st6" d="M282.63,41.71c2.72,0,4.97,2.24,4.97,4.97v125.96c0,23.23-18.27,36.69-36.85,36.69
			c-18.27,0-36.21-13.46-36.21-36.69v-1.12c0-2.72,2.24-4.97,4.97-4.97h12.82c2.72,0,4.97,2.24,4.97,4.97v1.44
			c0,10.09,7.69,14.58,13.46,14.58c5.77,0,13.62-4.49,13.62-14.58V46.68c0-2.72,2.24-4.97,4.97-4.97H282.63z"/>
		<path class="st6" d="M369.17,129.86c-2.72,0-4.33-1.44-5.13-4.49c-1.6-5.29-4.97-11.22-15.38-11.22
			c-10.42,0-16.82,2.24-16.82,11.06c0,20.51,57.2,6.73,57.2,50.95c0,24.52-20.35,33.17-40.86,33.17c-29,0-41.82-19.39-41.82-34.45
			c0-2.72,2.24-4.97,4.97-4.97h12.98c2.72,0,4.17,2.4,4.65,4.33c0.64,3.04,2.08,14.9,19.23,14.9c12.5,0,17.63-3.36,17.63-12.98
			c0-22.27-57.2-8.33-57.2-50.95c0-18.75,12.82-31.25,40.38-31.25c25,0,38.3,14.9,38.3,30.93c0,2.72-2.24,4.97-4.97,4.97H369.17z"/>
		<path class="st6" d="M491.28,167.67c2.24,0,3.69,2.08,3.53,3.85c-1.44,18.91-16.82,37.81-42.46,37.81
			c-25.64,0-44.39-18.91-44.39-46.95v-21.47c0-28.04,18.75-46.95,44.39-46.95c25.64,0,40.86,18.27,42.14,37.66
			c0.16,2.4-1.12,4.01-3.53,4.01h-16.34c-1.76,0-3.53-1.12-4.01-4.33c-1.28-7.69-6.57-15.54-18.27-15.54
			c-11.7,0-21.15,8.97-21.15,25.48v21.15c0,16.5,9.45,25.16,21.15,25.16c11.7,0,17.46-7.21,18.27-14.9c0.32-2.4,0.96-4.97,4.17-4.97
			H491.28z"/>
	</g>
	<g>
		<path class="st6" d="M331.89,41.73c0.87,0,1.59,0.72,1.59,1.59v20.27c0,8.96-5.53,14.48-13.61,14.48
			c-8.09,0-13.51-5.53-13.51-14.48V43.32c0-0.87,0.72-1.59,1.59-1.59h4.25c0.87,0,1.59,0.72,1.59,1.59v20.27
			c0,5.27,2.46,7.52,6.09,7.52c3.63,0,6.19-2.25,6.19-7.52V43.32c0-0.87,0.72-1.59,1.59-1.59H331.89z"/>
		<path class="st6" d="M348.58,66.3v9.67c0,0.87-0.72,1.59-1.59,1.59h-4.25c-0.87,0-1.59-0.72-1.59-1.59V43.32
			c0-0.87,0.72-1.59,1.59-1.59h13.77c6.3,0,11.06,4.1,11.06,11.26v1.54c0,7.17-4.76,11.77-11.06,11.77H348.58z M348.58,59.34h7.32
			c2.41,0,4.25-1.74,4.25-4.96v-0.72c0-3.22-1.84-4.97-4.25-4.97h-7.32V59.34z"/>
		<path class="st6" d="M384.46,77.56c-0.87,0-1.59-0.72-1.59-1.59V64.25l-10.7-19.6c-0.15-0.31-0.77-1.18-0.77-1.74
			c0-0.67,0.51-1.18,1.18-1.18h5.43c0.41,0,0.87,0.26,1.23,0.92l7.52,14.64l7.78-14.69c0.2-0.36,0.51-0.87,1.33-0.87h5.07
			c0.67,0,1.13,0.51,1.13,1.18c0,0.56-0.51,1.38-0.82,1.94l-10.95,19.5v11.62c0,0.87-0.72,1.59-1.59,1.59H384.46z"/>
		<path class="st6" d="M405.65,43.32c0-0.87,0.72-1.59,1.59-1.59h24.41c0.87,0,1.59,0.72,1.59,1.59v3.79c0,0.87-0.72,1.59-1.59,1.59
			h-8.5v27.28c0,0.87-0.72,1.59-1.59,1.59h-4.25c-0.87,0-1.59-0.72-1.59-1.59V48.69h-8.5c-0.87,0-1.59-0.72-1.59-1.59V43.32z"/>
		<path class="st6" d="M461.49,47.1c0,0.87-0.72,1.59-1.59,1.59h-13.61v7.22h10.54c0.87,0,1.59,0.72,1.59,1.59v3.79
			c0,0.87-0.72,1.59-1.59,1.59h-10.54v7.73h13.61c0.87,0,1.59,0.67,1.59,1.54v3.84c0,0.87-0.72,1.59-1.59,1.59h-19.45
			c-0.87,0-1.59-0.72-1.59-1.59V43.32c0-0.87,0.72-1.59,1.59-1.59h19.45c0.87,0,1.59,0.72,1.59,1.59V47.1z"/>
		<path class="st6" d="M475.82,75.97c0,0.87-0.72,1.59-1.59,1.59h-4.25c-0.87,0-1.59-0.72-1.59-1.59V43.32
			c0-0.87,0.72-1.59,1.59-1.59h13.77c6.3,0,11.06,3.58,11.06,10.75v1.54c0,4.76-1.79,8.24-6.35,9.83L494.3,75
			c0.26,0.51,0.51,0.92,0.51,1.43c0,0.67-0.46,1.13-1.13,1.13h-5.17c-0.87,0-1.38-0.61-1.69-1.23l-5.53-11.16h-5.48V75.97z
			 M475.82,58.21h7.32c2.41,0,4.25-1.23,4.25-4.35v-0.72c0-3.22-1.84-4.45-4.25-4.45h-7.32V58.21z"/>
	</g>
	<g>
		<path class="st6" d="M221.69,228.57c-0.15,0-0.23-0.08-0.26-0.23c-0.06-0.94-0.51-1.76-2.29-1.76c-1.4,0-2.38,0.37-2.38,1.78
			c0,3.1,6.09,1.18,6.09,5.23c0,2.19-1.89,2.98-3.7,2.98c-2.9,0-3.9-2.01-3.9-3.28c0-0.15,0.11-0.26,0.26-0.26h0.66
			c0.15,0,0.24,0.12,0.26,0.24c0.02,0.68,0.48,2.26,2.73,2.26c1.44,0,2.53-0.52,2.53-1.93c0-2.85-6.11-1.01-6.11-5.23
			c0-1.98,1.47-2.84,3.54-2.84c2.75,0,3.45,1.67,3.45,2.81c0,0.14-0.12,0.24-0.26,0.24H221.69z"/>
		<path class="st6" d="M232.7,225.67c0.15,0,0.26,0.12,0.26,0.28v6.47c0,2.55-1.55,4.14-3.77,4.14c-2.21,0-3.77-1.6-3.77-4.14v-6.47
			c0-0.15,0.11-0.28,0.25-0.28h0.64c0.15,0,0.28,0.12,0.28,0.28v6.47c0,1.96,1.09,3.05,2.61,3.05c1.52,0,2.61-1.09,2.61-3.05v-6.47
			c0-0.15,0.11-0.28,0.26-0.28H232.7z"/>
		<path class="st6" d="M237.2,232.38v3.79c0,0.15-0.12,0.24-0.28,0.24h-0.64c-0.14,0-0.24-0.09-0.24-0.24v-10.22
			c0-0.15,0.11-0.28,0.24-0.28h3.67c1.98,0,3.32,1.09,3.32,3.13v0.31c0,2.04-1.33,3.27-3.32,3.27H237.2z M237.2,231.29h2.7
			c1.15,0,2.19-0.64,2.19-2.15v-0.32c0-1.52-1.04-2.04-2.19-2.04h-2.7V231.29z"/>
		<path class="st6" d="M252.44,226.52c0,0.15-0.12,0.26-0.28,0.26h-5.19v3.67h4.16c0.15,0,0.26,0.11,0.26,0.26v0.57
			c0,0.15-0.11,0.26-0.26,0.26h-4.16v3.79h5.19c0.15,0,0.28,0.12,0.28,0.26v0.58c0,0.15-0.12,0.24-0.28,0.24h-6.11
			c-0.14,0-0.24-0.09-0.24-0.24v-10.22c0-0.15,0.11-0.28,0.24-0.28h6.11c0.15,0,0.28,0.12,0.28,0.28V226.52z"/>
		<path class="st6" d="M256.22,236.17c0,0.15-0.12,0.24-0.28,0.24h-0.64c-0.14,0-0.24-0.09-0.24-0.24v-10.22
			c0-0.15,0.11-0.28,0.24-0.28h3.67c1.98,0,3.32,1.04,3.32,3.08v0.23c0,1.37-0.72,2.49-2.3,2.9l2.21,4.14
			c0.05,0.09,0.08,0.15,0.08,0.21c0,0.11-0.08,0.17-0.18,0.17h-0.84c-0.15,0-0.23-0.09-0.29-0.2l-2.15-4.14h-2.58V236.17z
			 M256.22,230.98h2.7c1.15,0,2.19-0.63,2.19-1.96v-0.25c0-1.52-1.04-1.99-2.19-1.99h-2.7V230.98z"/>
		<path class="st6" d="M272.27,232.81c0.09,0,0.18,0.08,0.17,0.18c-0.11,1.9-1.61,3.58-3.84,3.58c-2.23,0-3.96-1.64-3.96-4.17v-2.69
			c0-2.56,1.7-4.19,3.94-4.19c2.22,0,3.62,1.56,3.85,3.42c0.02,0.18-0.08,0.25-0.21,0.25h-0.78c-0.09,0-0.17-0.06-0.2-0.25
			c-0.2-1.24-1.14-2.32-2.65-2.32c-1.53,0-2.76,1.14-2.76,3.1v2.67c0,1.95,1.24,3.08,2.78,3.08c1.5,0,2.49-1.01,2.65-2.47
			c0.03-0.12,0.09-0.2,0.2-0.2H272.27z"/>
		<path class="st6" d="M274.87,229.72c0-2.56,1.7-4.2,3.94-4.2c2.22,0,3.94,1.64,3.94,4.2v2.67c0,2.53-1.7,4.17-3.93,4.17
			s-3.96-1.64-3.96-4.17V229.72z M276.05,232.39c0,1.95,1.24,3.08,2.78,3.08c1.5,0,2.76-1.14,2.76-3.08v-2.65
			c0-1.96-1.26-3.12-2.78-3.12c-1.53,0-2.76,1.15-2.76,3.12V232.39z"/>
		<path class="st6" d="M285.87,236.41c-0.14,0-0.24-0.09-0.24-0.24v-10.22c0-0.15,0.11-0.28,0.24-0.28h1.23
			c0.14,0,0.2,0.08,0.24,0.15l3.39,9.01l3.42-8.99c0.05-0.11,0.11-0.17,0.21-0.17h1.2c0.14,0,0.26,0.12,0.26,0.28v10.22
			c0,0.15-0.12,0.24-0.26,0.24h-0.63c-0.15,0-0.24-0.09-0.24-0.24v-8.85l-3.42,8.93c-0.05,0.11-0.12,0.17-0.24,0.17h-0.6
			c-0.15,0-0.2-0.06-0.24-0.17l-3.44-8.93v8.85c0,0.15-0.11,0.24-0.26,0.24H285.87z"/>
		<path class="st6" d="M300.22,232.38v3.79c0,0.15-0.12,0.24-0.28,0.24h-0.64c-0.14,0-0.24-0.09-0.24-0.24v-10.22
			c0-0.15,0.11-0.28,0.24-0.28h3.67c1.98,0,3.32,1.09,3.32,3.13v0.31c0,2.04-1.33,3.27-3.32,3.27H300.22z M300.22,231.29h2.7
			c1.15,0,2.19-0.64,2.19-2.15v-0.32c0-1.52-1.04-2.04-2.19-2.04h-2.7V231.29z"/>
		<path class="st6" d="M315.97,225.67c0.15,0,0.26,0.12,0.26,0.28v6.47c0,2.55-1.55,4.14-3.77,4.14c-2.21,0-3.77-1.6-3.77-4.14
			v-6.47c0-0.15,0.11-0.28,0.25-0.28h0.64c0.15,0,0.28,0.12,0.28,0.28v6.47c0,1.96,1.09,3.05,2.61,3.05c1.52,0,2.61-1.09,2.61-3.05
			v-6.47c0-0.15,0.11-0.28,0.26-0.28H315.97z"/>
		<path class="st6" d="M318.31,225.95c0-0.15,0.11-0.28,0.26-0.28h7.61c0.15,0,0.28,0.12,0.28,0.28v0.57c0,0.15-0.12,0.26-0.28,0.26
			h-3.22v9.39c0,0.15-0.11,0.24-0.26,0.24h-0.64c-0.15,0-0.25-0.09-0.25-0.24v-9.39h-3.24c-0.15,0-0.26-0.11-0.26-0.26V225.95z"/>
		<path class="st6" d="M328.93,236.41c-0.14,0-0.24-0.09-0.24-0.24v-10.22c0-0.15,0.11-0.28,0.24-0.28h0.64
			c0.15,0,0.28,0.12,0.28,0.28v10.22c0,0.15-0.12,0.24-0.28,0.24H328.93z"/>
		<path class="st6" d="M333.95,236.41h-0.63c-0.14,0-0.24-0.09-0.24-0.24v-10.22c0-0.15,0.11-0.28,0.24-0.28h0.77
			c0.17,0,0.25,0.12,0.31,0.21l5.26,8.33v-8.27c0-0.15,0.09-0.28,0.25-0.28h0.63c0.15,0,0.26,0.12,0.26,0.28v10.22
			c0,0.15-0.11,0.24-0.26,0.24h-0.52c-0.11,0-0.24,0-0.41-0.29l-5.39-8.5v8.55C334.21,236.32,334.1,236.41,333.95,236.41z"/>
		<path class="st6" d="M347.71,232.03c-0.15,0-0.26-0.09-0.26-0.24v-0.55c0-0.15,0.11-0.26,0.26-0.26h3.5
			c0.15,0,0.26,0.11,0.26,0.26v4.94c0,0.15-0.11,0.24-0.26,0.24h-0.55c-0.15,0-0.24-0.09-0.24-0.24v-1.07
			c-0.52,0.91-1.61,1.47-2.82,1.47c-2.49,0-3.93-1.9-3.93-4.17v-2.67c0-2.56,1.72-4.2,3.96-4.2c2.23,0,3.51,1.5,3.84,3.25
			c0.02,0.14,0.02,0.18,0.02,0.25c0,0.11-0.06,0.17-0.15,0.17h-0.83c-0.11,0-0.17-0.08-0.2-0.25c-0.14-1.1-1.04-2.32-2.67-2.32
			c-1.53,0-2.78,1.15-2.78,3.12v2.65c0,1.95,1.24,3.08,2.79,3.08c1.9,0,2.7-1.6,2.7-2.65v-0.8H347.71z"/>
		<path class="st6" d="M358.98,236.41c-0.14,0-0.24-0.09-0.24-0.24v-10.22c0-0.15,0.11-0.28,0.24-0.28h0.64
			c0.15,0,0.28,0.12,0.28,0.28v10.22c0,0.15-0.12,0.24-0.28,0.24H358.98z"/>
		<path class="st6" d="M364,236.41h-0.63c-0.14,0-0.24-0.09-0.24-0.24v-10.22c0-0.15,0.11-0.28,0.24-0.28h0.77
			c0.17,0,0.25,0.12,0.31,0.21l5.26,8.33v-8.27c0-0.15,0.09-0.28,0.25-0.28h0.63c0.15,0,0.26,0.12,0.26,0.28v10.22
			c0,0.15-0.11,0.24-0.26,0.24h-0.52c-0.11,0-0.24,0-0.41-0.29l-5.39-8.5v8.55C364.26,236.32,364.15,236.41,364,236.41z"/>
		<path class="st6" d="M381.21,236.41c-0.15,0-0.26-0.09-0.26-0.24v-4.27l-3.59-5.77c-0.03-0.06-0.12-0.18-0.12-0.28
			c0-0.11,0.06-0.18,0.17-0.18h0.86c0.09,0,0.18,0.06,0.25,0.17l3.05,4.96l3.04-4.96c0.06-0.09,0.11-0.17,0.23-0.17h0.83
			c0.11,0,0.17,0.08,0.17,0.18c0,0.06-0.06,0.18-0.11,0.26l-3.61,5.79v4.27c0,0.15-0.11,0.24-0.26,0.24H381.21z"/>
		<path class="st6" d="M387.04,229.72c0-2.56,1.7-4.2,3.94-4.2c2.22,0,3.94,1.64,3.94,4.2v2.67c0,2.53-1.7,4.17-3.93,4.17
			s-3.96-1.64-3.96-4.17V229.72z M388.22,232.39c0,1.95,1.24,3.08,2.78,3.08c1.5,0,2.76-1.14,2.76-3.08v-2.65
			c0-1.96-1.26-3.12-2.78-3.12c-1.53,0-2.76,1.15-2.76,3.12V232.39z"/>
		<path class="st6" d="M404.94,225.67c0.15,0,0.26,0.12,0.26,0.28v6.47c0,2.55-1.55,4.14-3.77,4.14c-2.21,0-3.77-1.6-3.77-4.14
			v-6.47c0-0.15,0.11-0.28,0.25-0.28h0.64c0.15,0,0.28,0.12,0.28,0.28v6.47c0,1.96,1.09,3.05,2.61,3.05c1.52,0,2.61-1.09,2.61-3.05
			v-6.47c0-0.15,0.11-0.28,0.26-0.28H404.94z"/>
		<path class="st6" d="M409.44,236.17c0,0.15-0.12,0.24-0.28,0.24h-0.64c-0.14,0-0.24-0.09-0.24-0.24v-10.22
			c0-0.15,0.11-0.28,0.24-0.28h3.67c1.98,0,3.32,1.04,3.32,3.08v0.23c0,1.37-0.72,2.49-2.3,2.9l2.21,4.14
			c0.05,0.09,0.08,0.15,0.08,0.21c0,0.11-0.08,0.17-0.18,0.17h-0.84c-0.15,0-0.23-0.09-0.29-0.2l-2.15-4.14h-2.58V236.17z
			 M409.44,230.98h2.7c1.15,0,2.19-0.63,2.19-1.96v-0.25c0-1.52-1.04-1.99-2.19-1.99h-2.7V230.98z"/>
		<path class="st6" d="M422.38,236.17v-10.22c0-0.15,0.11-0.28,0.24-0.28h3.64c1.96,0,3.38,0.81,3.38,2.72v0.24
			c0,1.03-0.49,1.75-1.41,2.21c1.09,0.43,1.69,1.38,1.69,2.52v0.2c0,2.19-1.76,2.85-3.61,2.85h-3.68
			C422.48,236.41,422.38,236.32,422.38,236.17z M423.54,230.32h2.78c1.15,0,2.15-0.34,2.15-1.66v-0.23c0-1.35-1.1-1.66-2.26-1.66
			h-2.67V230.32z M423.54,235.32h2.82c1.2,0,2.39-0.32,2.39-1.81v-0.18c0-1.47-1.18-1.92-2.39-1.92h-2.82V235.32z"/>
		<path class="st6" d="M433.81,236.17c0,0.15-0.12,0.24-0.28,0.24h-0.64c-0.14,0-0.24-0.09-0.24-0.24v-10.22
			c0-0.15,0.11-0.28,0.24-0.28h3.67c1.98,0,3.32,1.04,3.32,3.08v0.23c0,1.37-0.72,2.49-2.3,2.9l2.21,4.14
			c0.05,0.09,0.08,0.15,0.08,0.21c0,0.11-0.08,0.17-0.18,0.17h-0.84c-0.15,0-0.23-0.09-0.29-0.2l-2.15-4.14h-2.58V236.17z
			 M433.81,230.98h2.7c1.15,0,2.19-0.63,2.19-1.96v-0.25c0-1.52-1.04-1.99-2.19-1.99h-2.7V230.98z"/>
		<path class="st6" d="M442.24,229.72c0-2.56,1.7-4.2,3.94-4.2c2.22,0,3.94,1.64,3.94,4.2v2.67c0,2.53-1.7,4.17-3.93,4.17
			s-3.96-1.64-3.96-4.17V229.72z M443.42,232.39c0,1.95,1.24,3.08,2.78,3.08c1.5,0,2.76-1.14,2.76-3.08v-2.65
			c0-1.96-1.26-3.12-2.78-3.12c-1.53,0-2.76,1.15-2.76,3.12V232.39z"/>
		<path class="st6" d="M455.9,236.41h-0.91c-0.11,0-0.21-0.05-0.24-0.18l-2.84-10.13c-0.03-0.09-0.06-0.18-0.06-0.25
			c0-0.11,0.08-0.18,0.18-0.18h0.8c0.09,0,0.23,0.06,0.28,0.26l2.36,8.87l2.36-8.85c0.05-0.17,0.14-0.28,0.28-0.28h0.77
			c0.14,0,0.23,0.08,0.28,0.28l2.38,8.85l2.35-8.85c0.03-0.14,0.09-0.28,0.28-0.28h0.77c0.09,0,0.17,0.08,0.17,0.18
			c0,0.05,0,0.09-0.05,0.25l-2.82,10.13c-0.03,0.11-0.12,0.18-0.28,0.18h-0.87c-0.14,0-0.21-0.08-0.26-0.18l-2.33-8.75l-2.32,8.75
			C456.13,236.34,456.04,236.41,455.9,236.41z"/>
		<path class="st6" d="M473.04,228.57c-0.15,0-0.23-0.08-0.26-0.23c-0.06-0.94-0.51-1.76-2.29-1.76c-1.4,0-2.38,0.37-2.38,1.78
			c0,3.1,6.09,1.18,6.09,5.23c0,2.19-1.89,2.98-3.7,2.98c-2.9,0-3.9-2.01-3.9-3.28c0-0.15,0.11-0.26,0.26-0.26h0.66
			c0.15,0,0.24,0.12,0.26,0.24c0.02,0.68,0.48,2.26,2.73,2.26c1.44,0,2.53-0.52,2.53-1.93c0-2.85-6.11-1.01-6.11-5.23
			c0-1.98,1.47-2.84,3.54-2.84c2.75,0,3.45,1.67,3.45,2.81c0,0.14-0.12,0.24-0.26,0.24H473.04z"/>
		<path class="st6" d="M483.54,226.52c0,0.15-0.12,0.26-0.28,0.26h-5.19v3.67h4.16c0.15,0,0.26,0.11,0.26,0.26v0.57
			c0,0.15-0.11,0.26-0.26,0.26h-4.16v3.79h5.19c0.15,0,0.28,0.12,0.28,0.26v0.58c0,0.15-0.12,0.24-0.28,0.24h-6.11
			c-0.14,0-0.24-0.09-0.24-0.24v-10.22c0-0.15,0.11-0.28,0.24-0.28h6.11c0.15,0,0.28,0.12,0.28,0.28V226.52z"/>
		<path class="st6" d="M487.32,236.17c0,0.15-0.12,0.24-0.28,0.24h-0.64c-0.14,0-0.24-0.09-0.24-0.24v-10.22
			c0-0.15,0.11-0.28,0.24-0.28h3.67c1.98,0,3.32,1.04,3.32,3.08v0.23c0,1.37-0.72,2.49-2.3,2.9l2.21,4.14
			c0.05,0.09,0.08,0.15,0.08,0.21c0,0.11-0.08,0.17-0.18,0.17h-0.84c-0.15,0-0.23-0.09-0.29-0.2l-2.15-4.14h-2.58V236.17z
			 M487.32,230.98h2.7c1.15,0,2.19-0.63,2.19-1.96v-0.25c0-1.52-1.04-1.99-2.19-1.99h-2.7V230.98z"/>
	</g>
</g>
</svg>
