<?xml version="1.0" encoding="UTF-8" standalone="no"?>
<!-- Generator: Adobe Illustrator 24.1.1, SVG Export Plug-In . SVG Version: 6.00 Build 0)  -->

<svg
   xmlns:dc="http://purl.org/dc/elements/1.1/"
   xmlns:cc="http://creativecommons.org/ns#"
   xmlns:rdf="http://www.w3.org/1999/02/22-rdf-syntax-ns#"
   xmlns:svg="http://www.w3.org/2000/svg"
   xmlns="http://www.w3.org/2000/svg"
   xmlns:sodipodi="http://sodipodi.sourceforge.net/DTD/sodipodi-0.dtd"
   xmlns:inkscape="http://www.inkscape.org/namespaces/inkscape"
   version="1.1"
   id="Ebene_1"
   x="0px"
   y="0px"
   viewBox="0 0 141.73 141.73"
   style="enable-background:new 0 0 141.73 141.73;"
   xml:space="preserve"
   sodipodi:docname="machine-offline3.svg"
   inkscape:version="0.92.4 (5da689c313, 2019-01-14)"><metadata
   id="metadata17"><rdf:RDF><cc:Work
       rdf:about=""><dc:format>image/svg+xml</dc:format><dc:type
         rdf:resource="http://purl.org/dc/dcmitype/StillImage" /><dc:title></dc:title></cc:Work></rdf:RDF></metadata><defs
   id="defs15" /><sodipodi:namedview
   pagecolor="#ffffff"
   bordercolor="#666666"
   borderopacity="1"
   objecttolerance="10"
   gridtolerance="10"
   guidetolerance="10"
   inkscape:pageopacity="0"
   inkscape:pageshadow="2"
   inkscape:window-width="2560"
   inkscape:window-height="1377"
   id="namedview13"
   showgrid="false"
   inkscape:zoom="4.7097214"
   inkscape:cx="30.145872"
   inkscape:cy="72.180122"
   inkscape:window-x="1912"
   inkscape:window-y="-8"
   inkscape:window-maximized="1"
   inkscape:current-layer="Ebene_1" />
<style
   type="text/css"
   id="style2">
	.st0{fill:#B9D25F;stroke:#023D6B;stroke-width:2;stroke-miterlimit:10;}
	.st1{fill:#FAEB5A;stroke:#023D6B;stroke-width:2;stroke-miterlimit:10;}
	.st2{fill:#FAB45A;stroke:#023D6B;stroke-width:2;stroke-miterlimit:10;}
	.st3{fill:#808080;}
	.st4{fill:#FFFFFF;}
	.st5{fill:#FAB45A;}
	.st6{fill:#FF1D25;}
	.st7{fill:none;stroke:#7AC943;stroke-width:7;stroke-linecap:round;stroke-linejoin:round;stroke-miterlimit:10;}
	.st8{fill:#023D6B;}
</style>
<path
   class="st3"
   d="M122.8,18H20.75c-3.13,0-5.67,2.54-5.67,5.67v17.01c0,3.13,2.54,5.67,5.67,5.67H122.8  c3.13,0,5.67-2.54,5.67-5.67V23.67C128.47,20.54,125.93,18,122.8,18z M55.18,33.59c0,0.78-0.64,1.42-1.42,1.42H25.48  c-0.78,0-1.41-0.64-1.41-1.42v-2.83c0-0.79,0.63-1.42,1.41-1.42h28.28c0.78,0,1.42,0.63,1.42,1.42V33.59z"
   id="path4" />
<path
   class="st3"
   d="M122.8,56.69H20.75c-3.13,0-5.67,2.54-5.67,5.67v17.01c0,3.13,2.54,5.67,5.67,5.67h54.81  c4.6-13.33,17.26-22.9,32.15-22.9c7.81,0,15.01,2.63,20.76,7.06v-6.84C128.47,59.23,125.93,56.69,122.8,56.69z M55.18,73.59  c0,0.78-0.64,1.42-1.42,1.42H25.48c-0.78,0-1.41-0.64-1.41-1.42v-2.83c0-0.79,0.63-1.42,1.41-1.42h28.28c0.78,0,1.42,0.63,1.42,1.42  V73.59z"
   id="path6" />
<path
   class="st3"
   d="M73.7,96.15c0-0.25,0-0.51,0.01-0.76H20.75c-3.13,0-5.67,2.53-5.67,5.66v17.01c0,3.13,2.54,5.67,5.67,5.67H87.8  C79.26,117.56,73.7,107.5,73.7,96.15z M55.18,110.98c0,0.78-0.64,1.41-1.42,1.41H25.48c-0.78,0-1.41-0.63-1.41-1.41v-2.84  c0-0.78,0.63-1.42,1.41-1.42h28.28c0.78,0,1.42,0.64,1.42,1.42V110.98z"
   id="path8" />

<path
   style="opacity:0;fill:#eb0fff;fill-opacity:1;stroke:none;stroke-width:0.05308169;stroke-opacity:1"
   d="m 104.93183,122.92515 c -1.69509,-0.17938 -3.72343,-0.60471 -5.420877,-1.13671 l -0.404658,-0.12683 -0.03186,-0.55751 c -0.01752,-0.30663 -0.05809,-1.34577 -0.09015,-2.30921 -0.03206,-0.96343 -0.06872,-1.80438 -0.08145,-1.86879 -0.0181,-0.0915 -0.211365,-0.20872 -0.885311,-0.53685 -0.474185,-0.23087 -1.051449,-0.52906 -1.28281,-0.66266 l -0.420656,-0.24291 -1.384122,0.93846 c -0.761266,0.51615 -1.66357,1.12737 -2.005119,1.35827 l -0.620998,0.41981 -0.148686,-0.0955 c -0.537371,-0.34522 -1.515491,-1.12964 -2.472543,-1.9829 -0.687763,-0.61318 -2.161547,-2.10836 -2.161547,-2.19293 0,-0.0254 0.502888,-1.00026 1.117529,-2.16639 l 1.11753,-2.12024 -0.401829,-0.56725 c -0.221005,-0.31198 -0.58218,-0.86122 -0.802611,-1.22051 l -0.400783,-0.65327 -0.328189,0.0285 c -1.019309,0.0885 -4.473938,0.32302 -4.503372,0.30571 -0.07009,-0.0412 -0.734456,-1.67358 -1.025715,-2.52022 -0.347878,-1.01122 -0.606639,-1.90717 -0.823981,-2.85301 -0.147431,-0.64159 -0.15013,-0.67551 -0.05979,-0.75154 0.05203,-0.0438 0.97193,-0.62902 2.044213,-1.3005 l 1.949606,-1.220881 -0.02655,-0.265409 c -0.0146,-0.145975 -0.05481,-0.802861 -0.08935,-1.459747 -0.03454,-0.656886 -0.07766,-1.209416 -0.09582,-1.227844 -0.01816,-0.01843 -0.996026,-0.496164 -2.173037,-1.061634 l -2.140019,-1.028128 0.03283,-0.31849 c 0.188044,-1.824251 0.664677,-4.117883 1.158229,-5.573578 l 0.125982,-0.371572 0.393324,-0.03387 c 0.216328,-0.01863 1.229361,-0.06137 2.251183,-0.09498 1.021823,-0.03361 1.934584,-0.07302 2.028357,-0.08759 0.161941,-0.02515 0.193023,-0.07234 0.619294,-0.940114 0.246837,-0.502498 0.544877,-1.082712 0.66231,-1.289366 L 88.363899,84.761235 87.034296,82.8039 c -0.731281,-1.076535 -1.341069,-1.987218 -1.355085,-2.023742 -0.02405,-0.06268 0.669617,-1.024679 1.199723,-1.663802 0.876582,-1.056852 2.893626,-3.13182 3.044394,-3.13182 0.02789,0 1.004412,0.501574 2.170056,1.114609 l 2.119353,1.114608 0.595472,-0.420074 c 0.327509,-0.231041 0.858226,-0.57888 1.17937,-0.772977 0.321144,-0.194096 0.602577,-0.371245 0.625407,-0.393665 0.02283,-0.02242 -0.03092,-1.025603 -0.119434,-2.229298 -0.08852,-1.203694 -0.160942,-2.291147 -0.160942,-2.416561 v -0.228027 l 0.597169,-0.255582 c 1.165074,-0.49864 2.184499,-0.862917 3.330871,-1.190241 1.02498,-0.292662 2.13352,-0.545212 2.17674,-0.49591 0.0203,0.0232 0.59192,0.925992 1.27018,2.006205 0.67826,1.080212 1.25241,1.984052 1.2759,2.008533 0.0235,0.02448 0.34992,0.01923 0.72541,-0.01166 0.37549,-0.0309 1.02911,-0.07143 1.45249,-0.09008 l 0.76979,-0.03391 1.03044,-2.130779 c 0.56674,-1.171929 1.04545,-2.148518 1.0638,-2.170198 0.0832,-0.0983 2.45274,0.258961 3.82111,0.576108 0.83994,0.194674 2.39068,0.638882 2.45197,0.702366 0.0185,0.0192 0.0746,1.10981 0.12456,2.423581 0.05,1.313772 0.10647,2.403297 0.12555,2.421166 0.0191,0.01787 0.32133,0.163448 0.67166,0.323508 0.35034,0.16006 0.91991,0.448983 1.26571,0.64205 l 0.62873,0.351032 1.98642,-1.351331 c 1.09253,-0.743232 2.00741,-1.351331 2.03305,-1.351331 0.0657,0 1.12874,0.803535 1.78755,1.35118 0.84269,0.700508 1.7912,1.591467 2.4248,2.277682 l 0.57108,0.6185 -0.14068,0.278266 c -0.0774,0.153046 -0.5821,1.114213 -1.12161,2.135927 -0.90338,1.71079 -0.97519,1.86672 -0.90837,1.972239 0.0399,0.06302 0.31267,0.469182 0.60615,0.902587 0.29347,0.433405 0.61594,0.938247 0.7166,1.121872 l 0.18301,0.333862 0.26541,-0.02905 c 0.14598,-0.01598 1.12534,-0.08818 2.17635,-0.160454 1.05102,-0.07227 2.02301,-0.14439 2.15997,-0.160258 l 0.24903,-0.02885 0.11425,0.253554 c 0.30156,0.669232 0.73127,1.768266 0.99158,2.536067 0.28423,0.838335 0.86441,3.008966 0.86441,3.233999 0,0.09479 -0.37295,0.35156 -2.0471,1.409398 -1.77924,1.124237 -2.04355,1.307924 -2.01988,1.403786 0.0403,0.16308 0.13973,1.620078 0.15351,2.248715 l 0.012,0.54597 2.16308,1.043585 2.16308,1.043585 v 0.195775 c 0,0.283755 -0.1941,1.694805 -0.34703,2.522825 -0.15193,0.82259 -0.5239,2.31055 -0.76381,3.0554 l -0.16527,0.51312 -0.38377,0.0308 c -0.21107,0.0169 -1.30222,0.0675 -2.42477,0.11237 -1.12255,0.0449 -2.04478,0.0868 -2.04939,0.0931 -0.005,0.006 -0.21308,0.42951 -0.46324,0.94042 -0.25017,0.51091 -0.5453,1.09 -0.65586,1.28686 l -0.20101,0.35793 0.58579,0.86295 c 0.32218,0.47462 0.93468,1.37795 1.36111,2.0074 l 0.77534,1.14444 -0.49485,0.66033 c -0.95542,1.27492 -2.03751,2.49262 -3.09235,3.47987 l -0.70188,0.65691 -0.33321,-0.1813 c -1.04112,-0.56645 -3.89348,-2.04772 -3.94312,-2.04772 -0.0322,0 -0.29611,0.16805 -0.58646,0.37345 -0.29035,0.2054 -0.82052,0.55401 -1.17815,0.77469 l -0.65026,0.40123 v 0.22853 c 0,0.12568 0.0721,1.21458 0.1602,2.41976 0.12812,1.75259 0.14672,2.19985 0.0929,2.23422 -0.30956,0.19768 -2.32954,0.96982 -3.3677,1.28731 -0.78127,0.23892 -2.46563,0.66711 -2.61821,0.66557 -0.0469,-5.3e-4 -0.60229,-0.83586 -1.34952,-2.0297 -0.69844,-1.1159 -1.27552,-2.03668 -1.28238,-2.04617 -0.007,-0.01 -0.28339,0.008 -0.6145,0.038 -0.33111,0.0304 -0.98754,0.071 -1.45872,0.0901 l -0.8567,0.0349 -1.05065,2.16982 c -1.16193,2.39961 -1.01075,2.18591 -1.50903,2.13317 z m 4.71832,-11.03249 c 3.6415,-0.46435 6.89706,-2.09266 9.4568,-4.72994 2.36291,-2.43447 3.8128,-5.41629 4.33264,-8.910442 0.14596,-0.981113 0.13275,-3.344018 -0.0243,-4.352699 -0.71377,-4.583236 -3.19402,-8.468484 -7.01777,-10.993182 -3.77229,-2.490712 -8.48279,-3.235175 -12.86552,-2.033307 -2.49703,0.684754 -4.895733,2.047672 -6.769996,3.846634 -3.135994,3.010003 -4.887233,7.107149 -4.888004,11.435827 -7.75e-4,4.339529 1.71922,8.372949 4.866691,11.412499 2.668518,2.57702 6.050539,4.09168 9.836709,4.40542 0.72475,0.0601 2.29119,0.0189 3.07279,-0.0808 z"
   id="path4756"
   inkscape:connector-curvature="0" /><path
   style="opacity:0;fill:#eb0fff;fill-opacity:1;stroke:none;stroke-width:0.05308169;stroke-opacity:1"
   d="m 104.93183,122.92515 c -1.69509,-0.17938 -3.72343,-0.60471 -5.420877,-1.13671 l -0.404658,-0.12683 -0.03186,-0.55751 c -0.01752,-0.30663 -0.05809,-1.34577 -0.09015,-2.30921 -0.03206,-0.96343 -0.06872,-1.80438 -0.08145,-1.86879 -0.0181,-0.0915 -0.211365,-0.20872 -0.885311,-0.53685 -0.474185,-0.23087 -1.051449,-0.52906 -1.28281,-0.66266 l -0.420656,-0.24291 -1.384122,0.93846 c -0.761266,0.51615 -1.66357,1.12737 -2.005119,1.35827 l -0.620998,0.41981 -0.148686,-0.0955 c -0.537371,-0.34522 -1.515491,-1.12964 -2.472543,-1.9829 -0.687763,-0.61318 -2.161547,-2.10836 -2.161547,-2.19293 0,-0.0254 0.502888,-1.00026 1.117529,-2.16639 l 1.11753,-2.12024 -0.401829,-0.56725 c -0.221005,-0.31198 -0.58218,-0.86122 -0.802611,-1.22051 l -0.400783,-0.65327 -0.328189,0.0285 c -1.019309,0.0885 -4.473938,0.32302 -4.503372,0.30571 -0.07009,-0.0412 -0.734456,-1.67358 -1.025715,-2.52022 -0.347878,-1.01122 -0.606639,-1.90717 -0.823981,-2.85301 -0.147431,-0.64159 -0.15013,-0.67551 -0.05979,-0.75154 0.05203,-0.0438 0.97193,-0.62902 2.044213,-1.3005 l 1.949606,-1.220881 -0.02655,-0.265409 c -0.0146,-0.145975 -0.05481,-0.802861 -0.08935,-1.459747 -0.03454,-0.656886 -0.07766,-1.209416 -0.09582,-1.227844 -0.01816,-0.01843 -0.996026,-0.496164 -2.173037,-1.061634 l -2.140019,-1.028128 0.03283,-0.31849 c 0.188044,-1.824251 0.664677,-4.117883 1.158229,-5.573578 l 0.125982,-0.371572 0.393324,-0.03387 c 0.216328,-0.01863 1.229361,-0.06137 2.251183,-0.09498 1.021823,-0.03361 1.934584,-0.07302 2.028357,-0.08759 0.161941,-0.02515 0.193023,-0.07234 0.619294,-0.940114 0.246837,-0.502498 0.544877,-1.082712 0.66231,-1.289366 L 88.363899,84.761235 87.034296,82.8039 c -0.731281,-1.076535 -1.341069,-1.987218 -1.355085,-2.023742 -0.02405,-0.06268 0.669617,-1.024679 1.199723,-1.663802 0.876582,-1.056852 2.893626,-3.13182 3.044394,-3.13182 0.02789,0 1.004412,0.501574 2.170056,1.114609 l 2.119353,1.114608 0.595472,-0.420074 c 0.327509,-0.231041 0.858226,-0.57888 1.17937,-0.772977 0.321144,-0.194096 0.602577,-0.371245 0.625407,-0.393665 0.02283,-0.02242 -0.03092,-1.025603 -0.119434,-2.229298 -0.08852,-1.203694 -0.160942,-2.291147 -0.160942,-2.416561 v -0.228027 l 0.597169,-0.255582 c 1.165074,-0.49864 2.184499,-0.862917 3.330871,-1.190241 1.02498,-0.292662 2.13352,-0.545212 2.17674,-0.49591 0.0203,0.0232 0.59192,0.925992 1.27018,2.006205 0.67826,1.080212 1.25241,1.984052 1.2759,2.008533 0.0235,0.02448 0.34992,0.01923 0.72541,-0.01166 0.37549,-0.0309 1.02911,-0.07143 1.45249,-0.09008 l 0.76979,-0.03391 1.03044,-2.130779 c 0.56674,-1.171929 1.04545,-2.148518 1.0638,-2.170198 0.0832,-0.0983 2.45274,0.258961 3.82111,0.576108 0.83994,0.194674 2.39068,0.638882 2.45197,0.702366 0.0185,0.0192 0.0746,1.10981 0.12456,2.423581 0.05,1.313772 0.10647,2.403297 0.12555,2.421166 0.0191,0.01787 0.32133,0.163448 0.67166,0.323508 0.35034,0.16006 0.91991,0.448983 1.26571,0.64205 l 0.62873,0.351032 1.98642,-1.351331 c 1.09253,-0.743232 2.00741,-1.351331 2.03305,-1.351331 0.0657,0 1.12874,0.803535 1.78755,1.35118 0.84269,0.700508 1.7912,1.591467 2.4248,2.277682 l 0.57108,0.6185 -0.14068,0.278266 c -0.0774,0.153046 -0.5821,1.114213 -1.12161,2.135927 -0.90338,1.71079 -0.97519,1.86672 -0.90837,1.972239 0.0399,0.06302 0.31267,0.469182 0.60615,0.902587 0.29347,0.433405 0.61594,0.938247 0.7166,1.121872 l 0.18301,0.333862 0.26541,-0.02905 c 0.14598,-0.01598 1.12534,-0.08818 2.17635,-0.160454 1.05102,-0.07227 2.02301,-0.14439 2.15997,-0.160258 l 0.24903,-0.02885 0.11425,0.253554 c 0.30156,0.669232 0.73127,1.768266 0.99158,2.536067 0.28423,0.838335 0.86441,3.008966 0.86441,3.233999 0,0.09479 -0.37295,0.35156 -2.0471,1.409398 -1.77924,1.124237 -2.04355,1.307924 -2.01988,1.403786 0.0403,0.16308 0.13973,1.620078 0.15351,2.248715 l 0.012,0.54597 2.16308,1.043585 2.16308,1.043585 v 0.195775 c 0,0.283755 -0.1941,1.694805 -0.34703,2.522825 -0.15193,0.82259 -0.5239,2.31055 -0.76381,3.0554 l -0.16527,0.51312 -0.38377,0.0308 c -0.21107,0.0169 -1.30222,0.0675 -2.42477,0.11237 -1.12255,0.0449 -2.04478,0.0868 -2.04939,0.0931 -0.005,0.006 -0.21308,0.42951 -0.46324,0.94042 -0.25017,0.51091 -0.5453,1.09 -0.65586,1.28686 l -0.20101,0.35793 0.58579,0.86295 c 0.32218,0.47462 0.93468,1.37795 1.36111,2.0074 l 0.77534,1.14444 -0.49485,0.66033 c -0.95542,1.27492 -2.03751,2.49262 -3.09235,3.47987 l -0.70188,0.65691 -0.33321,-0.1813 c -1.04112,-0.56645 -3.89348,-2.04772 -3.94312,-2.04772 -0.0322,0 -0.29611,0.16805 -0.58646,0.37345 -0.29035,0.2054 -0.82052,0.55401 -1.17815,0.77469 l -0.65026,0.40123 v 0.22853 c 0,0.12568 0.0721,1.21458 0.1602,2.41976 0.12812,1.75259 0.14672,2.19985 0.0929,2.23422 -0.30956,0.19768 -2.32954,0.96982 -3.3677,1.28731 -0.78127,0.23892 -2.46563,0.66711 -2.61821,0.66557 -0.0469,-5.3e-4 -0.60229,-0.83586 -1.34952,-2.0297 -0.69844,-1.1159 -1.27552,-2.03668 -1.28238,-2.04617 -0.007,-0.01 -0.28339,0.008 -0.6145,0.038 -0.33111,0.0304 -0.98754,0.071 -1.45872,0.0901 l -0.8567,0.0349 -1.05065,2.16982 c -1.16193,2.39961 -1.01075,2.18591 -1.50903,2.13317 z m 4.71832,-11.03249 c 3.6415,-0.46435 6.89706,-2.09266 9.4568,-4.72994 2.36291,-2.43447 3.8128,-5.41629 4.33264,-8.910442 0.14596,-0.981113 0.13275,-3.344018 -0.0243,-4.352699 -0.71377,-4.583236 -3.19402,-8.468484 -7.01777,-10.993182 -3.77229,-2.490712 -8.48279,-3.235175 -12.86552,-2.033307 -2.49703,0.684754 -4.895733,2.047672 -6.769996,3.846634 -3.135994,3.010003 -4.887233,7.107149 -4.888004,11.435827 -7.75e-4,4.339529 1.71922,8.372949 4.866691,11.412499 2.668518,2.57702 6.050539,4.09168 9.836709,4.40542 0.72475,0.0601 2.29119,0.0189 3.07279,-0.0808 z"
   id="path4758"
   inkscape:connector-curvature="0" /><path
   style="opacity:0;fill:#eb0fff;fill-opacity:1;stroke:none;stroke-width:0.05308169;stroke-opacity:1"
   d="m 104.93183,122.92515 c -1.69509,-0.17938 -3.72343,-0.60471 -5.420877,-1.13671 l -0.404658,-0.12683 -0.03186,-0.55751 c -0.01752,-0.30663 -0.05809,-1.34577 -0.09015,-2.30921 -0.03206,-0.96343 -0.06872,-1.80438 -0.08145,-1.86879 -0.0181,-0.0915 -0.211365,-0.20872 -0.885311,-0.53685 -0.474185,-0.23087 -1.051449,-0.52906 -1.28281,-0.66266 l -0.420656,-0.24291 -1.384122,0.93846 c -0.761266,0.51615 -1.66357,1.12737 -2.005119,1.35827 l -0.620998,0.41981 -0.148686,-0.0955 c -0.537371,-0.34522 -1.515491,-1.12964 -2.472543,-1.9829 -0.687763,-0.61318 -2.161547,-2.10836 -2.161547,-2.19293 0,-0.0254 0.502888,-1.00026 1.117529,-2.16639 l 1.11753,-2.12024 -0.401829,-0.56725 c -0.221005,-0.31198 -0.58218,-0.86122 -0.802611,-1.22051 l -0.400783,-0.65327 -0.328189,0.0285 c -1.019309,0.0885 -4.473938,0.32302 -4.503372,0.30571 -0.07009,-0.0412 -0.734456,-1.67358 -1.025715,-2.52022 -0.347878,-1.01122 -0.606639,-1.90717 -0.823981,-2.85301 -0.147431,-0.64159 -0.15013,-0.67551 -0.05979,-0.75154 0.05203,-0.0438 0.97193,-0.62902 2.044213,-1.3005 l 1.949606,-1.220881 -0.02655,-0.265409 c -0.0146,-0.145975 -0.05481,-0.802861 -0.08935,-1.459747 -0.03454,-0.656886 -0.07766,-1.209416 -0.09582,-1.227844 -0.01816,-0.01843 -0.996026,-0.496164 -2.173037,-1.061634 l -2.140019,-1.028128 0.03283,-0.31849 c 0.188044,-1.824251 0.664677,-4.117883 1.158229,-5.573578 l 0.125982,-0.371572 0.393324,-0.03387 c 0.216328,-0.01863 1.229361,-0.06137 2.251183,-0.09498 1.021823,-0.03361 1.934584,-0.07302 2.028357,-0.08759 0.161941,-0.02515 0.193023,-0.07234 0.619294,-0.940114 0.246837,-0.502498 0.544877,-1.082712 0.66231,-1.289366 L 88.363899,84.761235 87.034296,82.8039 c -0.731281,-1.076535 -1.341069,-1.987218 -1.355085,-2.023742 -0.02405,-0.06268 0.669617,-1.024679 1.199723,-1.663802 0.876582,-1.056852 2.893626,-3.13182 3.044394,-3.13182 0.02789,0 1.004412,0.501574 2.170056,1.114609 l 2.119353,1.114608 0.595472,-0.420074 c 0.327509,-0.231041 0.858226,-0.57888 1.17937,-0.772977 0.321144,-0.194096 0.602577,-0.371245 0.625407,-0.393665 0.02283,-0.02242 -0.03092,-1.025603 -0.119434,-2.229298 -0.08852,-1.203694 -0.160942,-2.291147 -0.160942,-2.416561 v -0.228027 l 0.597169,-0.255582 c 1.165074,-0.49864 2.184499,-0.862917 3.330871,-1.190241 1.02498,-0.292662 2.13352,-0.545212 2.17674,-0.49591 0.0203,0.0232 0.59192,0.925992 1.27018,2.006205 0.67826,1.080212 1.25241,1.984052 1.2759,2.008533 0.0235,0.02448 0.34992,0.01923 0.72541,-0.01166 0.37549,-0.0309 1.02911,-0.07143 1.45249,-0.09008 l 0.76979,-0.03391 1.03044,-2.130779 c 0.56674,-1.171929 1.04545,-2.148518 1.0638,-2.170198 0.0832,-0.0983 2.45274,0.258961 3.82111,0.576108 0.83994,0.194674 2.39068,0.638882 2.45197,0.702366 0.0185,0.0192 0.0746,1.10981 0.12456,2.423581 0.05,1.313772 0.10647,2.403297 0.12555,2.421166 0.0191,0.01787 0.32133,0.163448 0.67166,0.323508 0.35034,0.16006 0.91991,0.448983 1.26571,0.64205 l 0.62873,0.351032 1.98642,-1.351331 c 1.09253,-0.743232 2.00741,-1.351331 2.03305,-1.351331 0.0657,0 1.12874,0.803535 1.78755,1.35118 0.84269,0.700508 1.7912,1.591467 2.4248,2.277682 l 0.57108,0.6185 -0.14068,0.278266 c -0.0774,0.153046 -0.5821,1.114213 -1.12161,2.135927 -0.90338,1.71079 -0.97519,1.86672 -0.90837,1.972239 0.0399,0.06302 0.31267,0.469182 0.60615,0.902587 0.29347,0.433405 0.61594,0.938247 0.7166,1.121872 l 0.18301,0.333862 0.26541,-0.02905 c 0.14598,-0.01598 1.12534,-0.08818 2.17635,-0.160454 1.05102,-0.07227 2.02301,-0.14439 2.15997,-0.160258 l 0.24903,-0.02885 0.11425,0.253554 c 0.30156,0.669232 0.73127,1.768266 0.99158,2.536067 0.28423,0.838335 0.86441,3.008966 0.86441,3.233999 0,0.09479 -0.37295,0.35156 -2.0471,1.409398 -1.77924,1.124237 -2.04355,1.307924 -2.01988,1.403786 0.0403,0.16308 0.13973,1.620078 0.15351,2.248715 l 0.012,0.54597 2.16308,1.043585 2.16308,1.043585 v 0.195775 c 0,0.283755 -0.1941,1.694805 -0.34703,2.522825 -0.15193,0.82259 -0.5239,2.31055 -0.76381,3.0554 l -0.16527,0.51312 -0.38377,0.0308 c -0.21107,0.0169 -1.30222,0.0675 -2.42477,0.11237 -1.12255,0.0449 -2.04478,0.0868 -2.04939,0.0931 -0.005,0.006 -0.21308,0.42951 -0.46324,0.94042 -0.25017,0.51091 -0.5453,1.09 -0.65586,1.28686 l -0.20101,0.35793 0.58579,0.86295 c 0.32218,0.47462 0.93468,1.37795 1.36111,2.0074 l 0.77534,1.14444 -0.49485,0.66033 c -0.95542,1.27492 -2.03751,2.49262 -3.09235,3.47987 l -0.70188,0.65691 -0.33321,-0.1813 c -1.04112,-0.56645 -3.89348,-2.04772 -3.94312,-2.04772 -0.0322,0 -0.29611,0.16805 -0.58646,0.37345 -0.29035,0.2054 -0.82052,0.55401 -1.17815,0.77469 l -0.65026,0.40123 v 0.22853 c 0,0.12568 0.0721,1.21458 0.1602,2.41976 0.12812,1.75259 0.14672,2.19985 0.0929,2.23422 -0.30956,0.19768 -2.32954,0.96982 -3.3677,1.28731 -0.78127,0.23892 -2.46563,0.66711 -2.61821,0.66557 -0.0469,-5.3e-4 -0.60229,-0.83586 -1.34952,-2.0297 -0.69844,-1.1159 -1.27552,-2.03668 -1.28238,-2.04617 -0.007,-0.01 -0.28339,0.008 -0.6145,0.038 -0.33111,0.0304 -0.98754,0.071 -1.45872,0.0901 l -0.8567,0.0349 -1.05065,2.16982 c -1.16193,2.39961 -1.01075,2.18591 -1.50903,2.13317 z m 4.71832,-11.03249 c 3.6415,-0.46435 6.89706,-2.09266 9.4568,-4.72994 2.36291,-2.43447 3.8128,-5.41629 4.33264,-8.910442 0.14596,-0.981113 0.13275,-3.344018 -0.0243,-4.352699 -0.71377,-4.583236 -3.19402,-8.468484 -7.01777,-10.993182 -3.77229,-2.490712 -8.48279,-3.235175 -12.86552,-2.033307 -2.49703,0.684754 -4.895733,2.047672 -6.769996,3.846634 -3.135994,3.010003 -4.887233,7.107149 -4.888004,11.435827 -7.75e-4,4.339529 1.71922,8.372949 4.866691,11.412499 2.668518,2.57702 6.050539,4.09168 9.836709,4.40542 0.72475,0.0601 2.29119,0.0189 3.07279,-0.0808 z"
   id="path4760"
   inkscape:connector-curvature="0" /><rect
   style="opacity:0;fill:#000000;fill-opacity:1;stroke:none;stroke-opacity:1"
   id="rect3946"
   width="7.006783"
   height="33.335308"
   x="-86.417"
   y="38.114525"
   rx="3.2910647"
   ry="11.359484" /><g
   id="g7"
   transform="matrix(1.7355606,0,0,1.7355606,83.182606,71.727791)"
   style="fill:#808080;fill-opacity:1"><g
     id="x"
     style="fill:#808080;fill-opacity:1"><g
       id="g4"
       style="fill:#808080;fill-opacity:1"><polygon
         style="fill:#808080;fill-opacity:1"
         points="22.398,28 28,22.398 19.594,14 28,5.602 22.398,0 14,8.402 5.598,0 0,5.602 8.398,14 0,22.398 5.598,28 14,19.598 "
         id="polygon2" /></g></g></g></svg>
