<?xml version="1.0" encoding="utf-8"?>
<!-- Generator: Adobe Illustrator 24.1.1, SVG Export Plug-In . SVG Version: 6.00 Build 0)  -->
<svg version="1.1" id="Ebene_1" xmlns="http://www.w3.org/2000/svg" xmlns:xlink="http://www.w3.org/1999/xlink" x="0px" y="0px"
	 viewBox="0 0 100 100" style="enable-background:new 0 0 100 100;" xml:space="preserve">
<style type="text/css">
	.st0{fill:none;}
	.st1{fill:#FFFFFF;}
</style>
<circle class="st0" cx="50" cy="50" r="48"/>
<g>
	<g>
		<path class="st1" d="M56.63,32.28c2.96,1.86,5.04,5,5.42,8.66c1.21,0.56,2.55,0.89,3.97,0.89c5.19,0,9.4-4.21,9.4-9.4
			c0-5.2-4.21-9.4-9.4-9.4C60.88,23.03,56.71,27.16,56.63,32.28L56.63,32.28z M50.47,51.53c5.2,0,9.4-4.21,9.4-9.4
			c0-5.19-4.21-9.4-9.4-9.4c-5.19,0-9.4,4.21-9.4,9.4C41.07,47.33,45.28,51.53,50.47,51.53L50.47,51.53z M54.46,52.18h-7.98
			c-6.64,0-12.04,5.4-12.04,12.04v9.76l0.03,0.15l0.67,0.21c6.33,1.98,11.84,2.64,16.37,2.64c8.85,0,13.97-2.52,14.29-2.68
			l0.62-0.32h0.07v-9.76C66.5,57.58,61.1,52.18,54.46,52.18L54.46,52.18z M70.01,42.47H62.1c-0.09,3.16-1.44,6.02-3.58,8.07
			c5.9,1.75,10.22,7.22,10.22,13.69v3c7.82-0.29,12.32-2.5,12.62-2.65l0.63-0.32h0.07v-9.76C82.05,47.87,76.65,42.47,70.01,42.47
			L70.01,42.47z M33.97,41.83c1.84,0,3.55-0.54,5-1.45c0.46-3,2.07-5.63,4.37-7.42c0.01-0.17,0.03-0.35,0.03-0.53
			c0-5.19-4.21-9.4-9.4-9.4c-5.19,0-9.4,4.21-9.4,9.4C24.57,37.62,28.78,41.83,33.97,41.83L33.97,41.83z M42.42,50.54
			c-2.13-2.04-3.48-4.88-3.58-8.03c-0.29-0.02-0.59-0.04-0.88-0.04h-7.98c-6.64,0-12.04,5.4-12.04,12.04v9.76l0.02,0.15l0.67,0.21
			c5.08,1.59,9.62,2.32,13.56,2.55v-2.95C32.2,57.77,36.52,52.3,42.42,50.54L42.42,50.54z M42.42,50.54"/>
	</g>
</g>
</svg>
