<?xml version="1.0" encoding="utf-8"?>
<!-- Generator: Adobe Illustrator 24.1.1, SVG Export Plug-In . SVG Version: 6.00 Build 0)  -->
<svg version="1.1" xmlns="http://www.w3.org/2000/svg" xmlns:xlink="http://www.w3.org/1999/xlink" x="0px" y="0px"
	 viewBox="0 0 16 16" style="enable-background:new 0 0 16 16;" xml:space="preserve">
<style type="text/css">
	.st0{display:none;}
	.st1{fill:#023D6B;}
	.st2{fill:#ADBDE3;}
	.st3{fill:#025DFF;}
	.st4{opacity:0.2;fill:#FFFFFF;}
</style>
<g id="Ebene_2" class="st0">
</g>
<g id="Ebene_1">
	<g>
		<g>
			<g>
				<g>
					<g>
						<path class="st1" d="M15.5,7.95c0.03,4.14-3.31,7.52-7.45,7.55C3.9,15.52,0.53,12.19,0.5,8.05C0.47,3.9,3.81,0.53,7.95,0.5
							C12.1,0.47,15.47,3.81,15.5,7.95z"/>
						<path class="st2" d="M11.63,14.56c2.32-1.29,3.89-3.77,3.87-6.61c-0.03-4.14-3.4-7.48-7.55-7.45C3.81,0.53,0.47,3.9,0.5,8.05
							c0.01,1.21,0.3,2.36,0.82,3.37C1.32,11.42,4.56,14.04,11.63,14.56z"/>
						<path class="st1" d="M14.25,12.14c0.8-1.2,1.26-2.64,1.25-4.19c-0.03-4.14-3.4-7.48-7.55-7.45C3.81,0.53,0.47,3.9,0.5,8.05
							c0.01,0.86,0.15,1.68,0.42,2.44C6.97,12.99,11.79,12.59,14.25,12.14z"/>
						<path class="st3" d="M7.95,0.5C3.81,0.53,0.47,3.9,0.5,8.05c0,0.19,0.01,0.37,0.02,0.55c0.41,0.43,1.22,1.05,3.09,1.48
							c1.9,0.43,2.25,0.39,4.92,1.18c2.67,0.79,3.73,0.17,4.92,0.21c0.54,0.02,0.95-0.02,1.25-0.07c0.52-1.03,0.82-2.2,0.81-3.44
							C15.47,3.81,12.1,0.47,7.95,0.5z"/>
						<path class="st1" d="M7.95,0.5C4.25,0.52,1.19,3.23,0.6,6.77c0.83,0.4,6.31,2.8,14.9,1.22c0-0.01,0-0.02,0-0.03
							C15.47,3.81,12.1,0.47,7.95,0.5z"/>
						<path class="st2" d="M1.51,4.23L1.51,4.23c0,0,5.01,3.39,13.96,3.18c-0.3-3.89-3.56-6.94-7.52-6.91
							C5.2,0.52,2.8,2.02,1.51,4.23z"/>
						<path class="st3" d="M9.74,4.55c2.58-0.02,3.94,0.37,5.16,0.51c-1.15-2.7-3.83-4.58-6.95-4.56c-2.33,0.01-4.4,1.09-5.76,2.76
							C3.99,3.94,7.16,4.56,9.74,4.55z"/>
						<path class="st1" d="M14.44,4.15c-1.32-2.2-3.73-3.67-6.49-3.65C6.53,0.51,5.21,0.91,4.08,1.61l0,0
							C4.08,1.61,7.22,3.35,14.44,4.15L14.44,4.15z"/>
						<path class="st1" d="M4.74,1.24c1.63,0.77,4.18,1.56,8.47,1.37C11.85,1.29,10,0.49,7.95,0.5C6.8,0.51,5.72,0.77,4.74,1.24z"/>
					</g>
				</g>
			</g>
		</g>
		<path class="st4" d="M8,0.5c-0.02,0-0.03,0-0.05,0C3.81,0.53,0.47,3.9,0.5,8.05C0.53,12.17,3.88,15.5,8,15.5V0.5z"/>
	</g>
</g>
<g id="Ebene_3">
</g>
</svg>
