<?xml version="1.0" encoding="UTF-8"?>
<!-- Generator: Adobe Illustrator 26.0.1, SVG Export Plug-In . SVG Version: 6.00 Build 0)  -->
<svg version="1.1" id="Ebene_1" xmlns="http://www.w3.org/2000/svg" xmlns:xlink="http://www.w3.org/1999/xlink" x="0px" y="0px" viewBox="0 0 141.73 141.73" style="enable-background:new 0 0 141.73 141.73;" xml:space="preserve"><script xmlns="" id="__gaOptOutExtension"/>
<style type="text/css">
	.st0{fill:#B9D25F;stroke:#023D6B;stroke-width:2;stroke-miterlimit:10;}
	.st1{fill:#FAEB5A;stroke:#023D6B;stroke-width:2;stroke-miterlimit:10;}
	.st2{fill:#FAB45A;stroke:#023D6B;stroke-width:2;stroke-miterlimit:10;}
	.st3{fill:#808080;}
	.st4{fill:#B9D25F;}
	.st5{fill:#FAB45A;}
	.st6{fill:#FF1D25;}
	.st7{fill:#8C0000;}
	.st8{fill:none;stroke:#7AC943;stroke-width:7;stroke-linecap:round;stroke-linejoin:round;stroke-miterlimit:10;}
	.st9{fill:#FFFFFF;}
	.st10{fill:#7AC943;stroke:#7AC943;stroke-miterlimit:10;}
</style>
<g>
	<path class="st3" d="M121.89,18H19.84c-3.13,0-5.67,2.54-5.67,5.67v17.01c0,3.13,2.54,5.67,5.67,5.67h102.05   c3.13,0,5.67-2.54,5.67-5.67V23.67C127.56,20.54,125.02,18,121.89,18z M54.27,33.59c0,0.78-0.64,1.42-1.42,1.42H24.57   c-0.78,0-1.41-0.64-1.41-1.42v-2.83c0-0.79,0.63-1.42,1.41-1.42h28.28c0.78,0,1.42,0.63,1.42,1.42V33.59z"/>
	<path class="st3" d="M121.89,56.69H19.84c-3.13,0-5.67,2.54-5.67,5.67v17.01c0,3.13,2.54,5.67,5.67,5.67h55.72   c4.6-13.33,17.26-22.9,32.16-22.9c7.4,0,14.25,2.36,19.84,6.38v-6.16C127.56,59.23,125.02,56.69,121.89,56.69z M54.27,73.59   c0,0.78-0.64,1.42-1.42,1.42H24.57c-0.78,0-1.41-0.64-1.41-1.42v-2.83c0-0.79,0.63-1.42,1.41-1.42h28.28   c0.78,0,1.42,0.63,1.42,1.42V73.59z"/>
	<path class="st3" d="M73.7,96.15c0-0.25,0-0.51,0.01-0.76H19.84c-3.13,0-5.67,2.53-5.67,5.66v17.01c0,3.13,2.54,5.67,5.67,5.67   H87.8C79.26,117.56,73.7,107.5,73.7,96.15z M54.27,110.98c0,0.78-0.64,1.41-1.42,1.41H24.57c-0.78,0-1.41-0.63-1.41-1.41v-2.84   c0-0.78,0.63-1.42,1.41-1.42h28.28c0.78,0,1.42,0.64,1.42,1.42V110.98z"/>
</g>
<g>
	<path class="st10" d="M103.64,112.72c0-2.49,1.73-4.28,4.08-4.28c2.49,0,4.08,1.8,4.08,4.28c0,2.42-1.59,4.28-4.08,4.28   C105.3,117,103.64,115.14,103.64,112.72z M105.3,100.49l-0.83-28.33c-0.04-1.36,1.05-2.49,2.42-2.49h1.65   c1.36,0,2.46,1.13,2.42,2.49l-0.83,28.33c-0.04,1.31-1.11,2.35-2.42,2.35l0,0C106.41,102.84,105.34,101.8,105.3,100.49z"/>
</g>
</svg>