<?xml version="1.0" encoding="UTF-8"?>
<!-- Generator: Adobe Illustrator 26.0.1, SVG Export Plug-In . SVG Version: 6.00 Build 0)  -->
<svg version="1.1" id="Ebene_1" xmlns="http://www.w3.org/2000/svg" xmlns:xlink="http://www.w3.org/1999/xlink" x="0px" y="0px" viewBox="0 0 141.73 141.73" style="enable-background:new 0 0 141.73 141.73;" xml:space="preserve"><script xmlns="" id="__gaOptOutExtension"/>
<style type="text/css">
	.st0{fill:#B9D25F;stroke:#023D6B;stroke-width:2;stroke-miterlimit:10;}
	.st1{fill:#FAEB5A;stroke:#023D6B;stroke-width:2;stroke-miterlimit:10;}
	.st2{fill:#FAB45A;stroke:#023D6B;stroke-width:2;stroke-miterlimit:10;}
	.st3{fill:#808080;}
	.st4{fill:#B9D25F;}
	.st5{fill:#FAB45A;}
	.st6{fill:#FF1D25;}
	.st7{fill:#8C0000;}
	.st8{fill:none;stroke:#7AC943;stroke-width:7;stroke-linecap:round;stroke-linejoin:round;stroke-miterlimit:10;}
	.st9{fill:#FFFFFF;}
	.st10{fill:#7AC943;stroke:#7AC943;stroke-miterlimit:10;}
</style>
<path class="st3" d="M121.89,18H19.84c-3.13,0-5.67,2.54-5.67,5.67v17.01c0,3.13,2.54,5.67,5.67,5.67h102.05  c3.13,0,5.67-2.54,5.67-5.67V23.67C127.56,20.54,125.02,18,121.89,18z M54.26,33.59c0,0.78-0.63,1.42-1.41,1.42H24.57  c-0.78,0-1.42-0.64-1.42-1.42v-2.83c0-0.79,0.64-1.42,1.42-1.42h28.28c0.78,0,1.41,0.63,1.41,1.42V33.59z"/>
<path class="st3" d="M121.89,56.69H19.84c-3.13,0-5.67,2.54-5.67,5.67v17.01c0,3.13,2.54,5.67,5.67,5.67h54.8  c4.6-13.33,17.26-22.9,32.16-22.9c7.81,0,15.01,2.63,20.76,7.07v-6.85C127.56,59.23,125.02,56.69,121.89,56.69z M54.26,73.59  c0,0.78-0.63,1.42-1.41,1.42H24.57c-0.78,0-1.42-0.64-1.42-1.42v-2.83c0-0.79,0.64-1.42,1.42-1.42h28.28c0.78,0,1.41,0.63,1.41,1.42  V73.59z"/>
<path class="st3" d="M72.78,96.15c0-0.25,0-0.51,0.01-0.76H19.84c-3.13,0-5.67,2.53-5.67,5.66v17.01c0,3.13,2.54,5.67,5.67,5.67  h67.04C78.34,117.56,72.78,107.5,72.78,96.15z M54.26,110.98c0,0.78-0.63,1.41-1.41,1.41H24.57c-0.78,0-1.42-0.63-1.42-1.41v-2.84  c0-0.78,0.64-1.42,1.42-1.42h28.28c0.78,0,1.41,0.64,1.41,1.42V110.98z"/>
<path class="st6" d="M132.32,104.79c0.69-2.02,1.13-4.14,1.32-6.33l-4.37-2.11c0-0.71-0.02-1.42-0.08-2.14  c-0.02-0.25-0.05-0.49-0.08-0.74l4.11-2.6c-0.43-2.16-1.11-4.22-2.01-6.14l-4.85,0.35c-0.47-0.84-1-1.65-1.58-2.41l2.26-4.29  c-1.43-1.62-3.05-3.07-4.82-4.31l-4.02,2.73c-0.82-0.49-1.68-0.92-2.57-1.3l-0.19-4.85c-2.02-0.69-4.15-1.13-6.33-1.32l-2.12,4.37  c-0.71-0.01-1.42,0.02-2.14,0.08c-0.25,0.02-0.49,0.05-0.74,0.08l-2.59-4.11c-2.16,0.43-4.22,1.11-6.15,2.01l0.35,4.85  c-0.84,0.47-1.65,1-2.41,1.58l-4.3-2.26c-1.62,1.43-3.07,3.05-4.31,4.82l2.73,4.02c-0.49,0.82-0.93,1.68-1.31,2.57l-4.85,0.19  c-0.69,2.02-1.13,4.14-1.32,6.33l4.37,2.11c0,0.71,0.02,1.42,0.08,2.14c0.02,0.25,0.05,0.49,0.09,0.74l-4.11,2.59  c0.43,2.16,1.11,4.22,2.01,6.14l4.85-0.35c0.48,0.84,1,1.64,1.58,2.41l-2.26,4.29c1.43,1.63,3.05,3.07,4.82,4.31l4.02-2.73  c0.83,0.49,1.68,0.93,2.57,1.31l0.19,4.85c2.02,0.68,4.14,1.13,6.33,1.32l2.12-4.37c0.7,0,1.42-0.02,2.14-0.08  c0.25-0.02,0.49-0.05,0.73-0.08l2.59,4.12c2.16-0.43,4.22-1.11,6.15-2.01l-0.35-4.85c0.84-0.48,1.64-1,2.41-1.58l4.29,2.26  c1.62-1.43,3.07-3.05,4.31-4.82l-2.72-4.02c0.48-0.83,0.92-1.68,1.3-2.57L132.32,104.79z M106.8,111.99  c-8.73,0-15.83-7.1-15.83-15.83c0-8.73,7.1-15.83,15.83-15.83c8.73,0,15.83,7.1,15.83,15.83  C122.63,104.88,115.53,111.99,106.8,111.99z"/>
</svg>