<?xml version="1.0" encoding="utf-8"?>
<!-- Generator: Adobe Illustrator 24.1.1, SVG Export Plug-In . SVG Version: 6.00 Build 0)  -->
<svg version="1.1" id="Ebene_1" xmlns="http://www.w3.org/2000/svg" xmlns:xlink="http://www.w3.org/1999/xlink" x="0px" y="0px"
	 viewBox="0 0 141.73 141.73" style="enable-background:new 0 0 141.73 141.73;" xml:space="preserve">
<style type="text/css">
	.st0{fill:#023D6B;}
	.st1{fill:#ADBDE3;}
	.st2{fill:#025DFF;}
	.st3{opacity:0.2;fill:#FFFFFF;}
	.st4{clip-path:url(#XMLID_5_);fill:#025DFF;}
	.st5{clip-path:url(#XMLID_5_);fill:#ADBDE3;}
	.st6{clip-path:url(#XMLID_5_);fill:#023D6B;}
	.st7{opacity:0.4;clip-path:url(#XMLID_5_);fill:#ADBDE3;}
	.st8{opacity:0.1;fill:#FFFFFF;}
	.st9{clip-path:url(#XMLID_6_);fill:#025DFF;}
	.st10{clip-path:url(#XMLID_6_);fill:#ADBDE3;}
	.st11{clip-path:url(#XMLID_6_);fill:#023D6B;}
	.st12{opacity:0.4;clip-path:url(#XMLID_6_);fill:#ADBDE3;}
	.st13{clip-path:url(#XMLID_7_);fill:#025DFF;}
	.st14{clip-path:url(#XMLID_7_);fill:#ADBDE3;}
	.st15{clip-path:url(#XMLID_7_);fill:#023D6B;}
	.st16{opacity:0.4;clip-path:url(#XMLID_7_);fill:#ADBDE3;}
	.st17{fill:#B9D25F;stroke:#023D6B;stroke-width:2;stroke-miterlimit:10;}
	.st18{fill:#FAEB5A;stroke:#023D6B;stroke-width:2;stroke-miterlimit:10;}
	.st19{fill:#FAB45A;stroke:#023D6B;stroke-width:2;stroke-miterlimit:10;}
	.st20{fill:#808080;}
	.st21{fill:#FFFFFF;}
	.st22{fill:#FAB45A;}
	.st23{fill:#EEEEEE;}
	.st24{fill:#FF1D25;}
	.st25{fill:none;stroke:#7AC943;stroke-width:7;stroke-linecap:round;stroke-linejoin:round;stroke-miterlimit:10;}
</style>
<g>
	<g>
		<g>
			<g>
				<g>
					<path class="st0" d="M127.56,70.51c0.19,31.31-25.03,56.85-56.35,57.04c-31.31,0.19-56.84-25.04-57.04-56.34
						c-0.2-31.31,25.03-56.85,56.34-57.04C101.83,13.98,127.36,39.21,127.56,70.51z"/>
					<path class="st1" d="M98.29,120.49c17.56-9.73,29.4-28.49,29.27-49.98c-0.2-31.31-25.73-56.53-57.05-56.34
						c-31.31,0.19-56.54,25.73-56.34,57.04c0.06,9.18,2.29,17.84,6.22,25.49C20.41,96.71,44.86,116.49,98.29,120.49z"/>
					<path class="st0" d="M118.11,102.2c6.04-9.07,9.52-19.97,9.45-31.68c-0.2-31.31-25.73-56.53-57.05-56.34
						c-31.31,0.19-56.54,25.73-56.34,57.04c0.04,6.47,1.17,12.69,3.2,18.47C63.09,108.58,99.52,105.55,118.11,102.2z"/>
					<path class="st2" d="M70.51,14.17c-31.31,0.19-56.54,25.73-56.34,57.04c0.01,1.41,0.07,2.8,0.18,4.18
						c3.11,3.22,9.26,7.95,23.35,11.16c14.33,3.26,17.01,2.94,37.16,8.9c20.15,5.96,28.2,1.26,37.17,1.6
						c4.07,0.15,7.21-0.16,9.43-0.56c3.96-7.8,6.17-16.63,6.11-25.97C127.36,39.21,101.83,13.98,70.51,14.17z"/>
					<path class="st0" d="M70.51,14.17C42.5,14.34,19.37,34.81,14.93,61.54c6.25,3.01,47.67,21.2,112.62,9.22
						c0.01-0.08,0.01-0.16,0.01-0.24C127.36,39.21,101.83,13.98,70.51,14.17z"/>
					<path class="st1" d="M21.83,42.4L21.83,42.4c0,0,37.87,25.61,105.55,24.01c-2.28-29.38-26.93-52.42-56.87-52.24
						C49.7,14.3,31.59,25.63,21.83,42.4z"/>
					<path class="st2" d="M84,44.77c19.48-0.12,29.76,2.79,39.04,3.88c-8.69-20.39-28.97-34.63-52.52-34.48
						c-17.58,0.11-33.25,8.21-43.57,20.85C40.55,40.17,64.52,44.89,84,44.77z"/>
					<path class="st0" d="M119.54,41.79c-9.96-16.65-28.21-27.75-49.03-27.62c-10.74,0.07-20.76,3.12-29.29,8.36l0,0
						C41.22,22.53,64.98,35.73,119.54,41.79L119.54,41.79z"/>
					<path class="st0" d="M46.26,19.78c12.3,5.85,31.63,11.77,64.03,10.35C100,20.17,85.95,14.08,70.51,14.17
						C61.82,14.23,53.6,16.24,46.26,19.78z"/>
				</g>
			</g>
		</g>
	</g>
	<path class="st3" d="M70.87,14.18c-0.12,0-0.24-0.01-0.35-0.01c-31.31,0.19-56.54,25.73-56.34,57.04
		c0.19,31.19,25.54,56.34,56.69,56.34V14.18z"/>
</g>
<circle class="st23" cx="107.72" cy="96.15" r="34.02"/>
<path class="st24" d="M133.23,104.79c0.69-2.02,1.13-4.14,1.32-6.33l-4.37-2.11c0-0.71-0.02-1.42-0.08-2.14
	c-0.02-0.25-0.05-0.49-0.08-0.74l4.11-2.6c-0.43-2.16-1.11-4.22-2.01-6.14l-4.85,0.35c-0.47-0.84-1-1.65-1.58-2.41l2.26-4.29
	c-1.43-1.62-3.05-3.07-4.82-4.31l-4.02,2.73c-0.82-0.49-1.68-0.92-2.57-1.3l-0.19-4.85c-2.02-0.69-4.15-1.13-6.33-1.32l-2.12,4.37
	c-0.71-0.01-1.42,0.02-2.14,0.08c-0.25,0.02-0.49,0.05-0.74,0.08l-2.59-4.11c-2.16,0.43-4.22,1.11-6.15,2.01l0.35,4.85
	c-0.84,0.47-1.65,1-2.41,1.58l-4.3-2.26c-1.63,1.43-3.07,3.05-4.31,4.82l2.73,4.02c-0.49,0.82-0.93,1.68-1.31,2.57l-4.85,0.19
	c-0.69,2.02-1.13,4.14-1.32,6.33l4.37,2.11c0,0.71,0.02,1.42,0.08,2.14c0.02,0.25,0.05,0.49,0.09,0.74l-4.11,2.59
	c0.43,2.16,1.11,4.22,2.01,6.14l4.85-0.35c0.48,0.84,1,1.64,1.58,2.41l-2.26,4.29c1.43,1.63,3.05,3.07,4.82,4.31l4.02-2.73
	c0.83,0.49,1.68,0.93,2.57,1.31l0.19,4.85c2.02,0.68,4.14,1.13,6.33,1.32l2.12-4.37c0.7,0,1.42-0.02,2.14-0.08
	c0.25-0.02,0.49-0.05,0.73-0.08l2.59,4.12c2.16-0.43,4.22-1.11,6.15-2.01l-0.35-4.85c0.84-0.48,1.64-1,2.41-1.58l4.29,2.26
	c1.62-1.43,3.07-3.05,4.31-4.82l-2.72-4.02c0.48-0.83,0.92-1.68,1.3-2.57L133.23,104.79z M107.72,111.99
	c-8.73,0-15.83-7.1-15.83-15.83c0-8.73,7.1-15.83,15.83-15.83c8.73,0,15.83,7.1,15.83,15.83
	C123.55,104.88,116.45,111.99,107.72,111.99z"/>
</svg>
